<svg xmlns="http://www.w3.org/2000/svg" xmlns:xlink="http://www.w3.org/1999/xlink" width="500" zoomAndPan="magnify" viewBox="0 0 375 374.999991" height="500" preserveAspectRatio="xMidYMid meet" version="1.0"><defs><g/><clipPath id="d7e91c6cb6"><path d="M 187 160.917969 L 262.5 160.917969 L 262.5 275.667969 L 187 275.667969 Z M 187 160.917969 " clip-rule="nonzero"/></clipPath><clipPath id="3bbad24d8b"><path d="M 112.5 160.917969 L 188 160.917969 L 188 275.667969 L 112.5 275.667969 Z M 112.5 160.917969 " clip-rule="nonzero"/></clipPath><clipPath id="d267ddc358"><path d="M 142 89 L 234 89 L 234 160 L 142 160 Z M 142 89 " clip-rule="nonzero"/></clipPath><clipPath id="2a129b9ee2"><path d="M 196.71875 90.496094 C 206.082031 92.972656 213.535156 99.035156 218.023438 106.785156 C 220.734375 111.421875 222.355469 116.660156 222.675781 122.152344 C 230.128906 126.949219 234.140625 132.027344 232.960938 136.378906 C 231.816406 140.730469 225.796875 143.144531 216.910156 143.585938 C 213.886719 148.128906 209.839844 151.875 205.191406 154.574219 C 197.417969 159.050781 187.929688 160.542969 178.5625 158.066406 C 169.230469 155.558594 161.78125 149.527344 157.289062 141.777344 L 157.257812 141.777344 C 154.582031 137.109375 152.957031 131.871094 152.640625 126.410156 C 145.152344 121.613281 141.171875 116.5 142.320312 112.183594 C 143.496094 107.832031 149.515625 105.417969 158.402344 104.972656 C 161.429688 100.402344 165.472656 96.65625 170.125 93.988281 C 177.894531 89.511719 187.386719 87.984375 196.71875 90.496094 Z M 222.675781 126.28125 C 222.546875 128.597656 222.164062 130.980469 221.527344 133.332031 C 220.890625 135.679688 220.0625 137.902344 218.980469 140 C 225.03125 139.460938 228.980469 137.96875 229.648438 135.488281 C 230.320312 133.046875 227.644531 129.742188 222.675781 126.28125 Z M 152.605469 122.28125 C 152.765625 119.929688 153.148438 117.582031 153.753906 115.230469 C 154.390625 112.882812 155.25 110.625 156.300781 108.53125 C 150.25 109.070312 146.300781 110.59375 145.664062 113.039062 C 144.996094 115.515625 147.636719 118.789062 152.605469 122.28125 Z M 212.644531 143.652344 C 208.089844 143.585938 202.929688 143.078125 197.417969 142.191406 C 195.859375 145.398438 194.105469 148.191406 192.324219 150.542969 C 190.636719 152.734375 188.882812 154.511719 187.101562 155.8125 C 192.929688 155.941406 198.597656 154.414062 203.46875 151.589844 C 207.003906 149.589844 210.125 146.890625 212.644531 143.652344 Z M 193.914062 141.554688 C 190.570312 140.921875 187.132812 140.125 183.628906 139.207031 C 180.15625 138.253906 176.78125 137.238281 173.5625 136.125 C 173.4375 139.078125 173.53125 141.808594 173.851562 144.253906 C 174.582031 150 176.527344 153.972656 179.457031 154.734375 C 182.386719 155.527344 186.046875 153.082031 189.582031 148.476562 C 191.082031 146.507812 192.546875 144.191406 193.914062 141.554688 Z M 170.1875 134.917969 C 164.964844 132.949219 160.28125 130.789062 156.300781 128.597656 C 156.875 132.664062 158.210938 136.539062 160.25 140.0625 C 163.085938 144.921875 167.195312 149.050781 172.320312 151.875 C 171.429688 149.875 170.792969 147.429688 170.441406 144.699219 C 170.058594 141.777344 169.964844 138.476562 170.1875 134.917969 Z M 162.671875 104.910156 C 167.226562 104.972656 172.351562 105.449219 177.863281 106.371094 C 179.457031 103.164062 181.175781 100.339844 182.992188 97.988281 C 184.679688 95.796875 186.429688 94.019531 188.214844 92.71875 C 182.355469 92.621094 176.71875 94.144531 171.84375 96.941406 L 171.8125 96.941406 C 168.308594 98.972656 165.1875 101.671875 162.671875 104.910156 Z M 181.398438 107.007812 C 184.742188 107.640625 188.152344 108.402344 191.652344 109.355469 C 195.15625 110.277344 198.535156 111.324219 201.75 112.4375 C 201.878906 109.484375 201.78125 106.722656 201.464844 104.277344 C 200.699219 98.527344 198.789062 94.589844 195.859375 93.796875 C 192.894531 93.003906 189.265625 95.480469 185.730469 100.085938 C 184.203125 102.054688 182.769531 104.371094 181.398438 107.007812 Z M 205.09375 113.644531 C 210.316406 115.613281 215.03125 117.738281 219.011719 119.960938 C 218.4375 115.898438 217.101562 111.992188 215.0625 108.5 C 212.230469 103.609375 208.121094 99.480469 202.992188 96.6875 C 203.882812 98.6875 204.519531 101.101562 204.871094 103.832031 C 205.253906 106.785156 205.347656 110.085938 205.09375 113.644531 Z M 219.300781 124.089844 C 215.316406 121.675781 210.382812 119.328125 204.777344 117.167969 C 204.363281 120.722656 203.628906 124.472656 202.609375 128.28125 C 201.589844 132.09375 200.347656 135.679688 198.914062 138.953125 C 204.839844 139.871094 210.316406 140.316406 214.96875 140.222656 C 216.371094 137.839844 217.453125 135.234375 218.214844 132.441406 C 218.980469 129.648438 219.332031 126.851562 219.300781 124.089844 Z M 201.464844 115.960938 C 198.085938 114.753906 194.519531 113.675781 190.761719 112.660156 C 187.035156 111.675781 183.375 110.847656 179.871094 110.183594 C 178.371094 113.515625 177.066406 117.199219 176.015625 121.167969 C 174.933594 125.105469 174.234375 128.980469 173.851562 132.601562 C 177.226562 133.777344 180.792969 134.886719 184.519531 135.871094 C 188.277344 136.886719 191.910156 137.714844 195.445312 138.347656 C 196.910156 135.046875 198.246094 131.332031 199.296875 127.394531 C 200.347656 123.421875 201.082031 119.582031 201.464844 115.960938 Z M 176.367188 109.609375 C 170.441406 108.65625 164.996094 108.246094 160.347656 108.339844 C 158.945312 110.722656 157.832031 113.324219 157.097656 116.121094 C 156.332031 118.914062 155.984375 121.707031 156.015625 124.472656 C 159.996094 126.851562 164.933594 129.203125 170.539062 131.363281 C 170.953125 127.804688 171.652344 124.089844 172.671875 120.28125 C 173.722656 116.46875 174.964844 112.882812 176.367188 109.609375 Z M 176.367188 109.609375 " clip-rule="nonzero"/></clipPath><linearGradient x1="4.772194" gradientTransform="matrix(3.184931, 0, 0, 3.175423, 142.128449, 89.287748)" y1="25.781099" x2="24.102007" gradientUnits="userSpaceOnUse" y2="-3.563893" id="f12f8f3070"><stop stop-opacity="1" stop-color="rgb(13.299561%, 13.299561%, 56.898499%)" offset="0"/><stop stop-opacity="1" stop-color="rgb(13.299561%, 13.299561%, 56.898499%)" offset="0.456957"/><stop stop-opacity="1" stop-color="rgb(13.299561%, 13.299561%, 56.898499%)" offset="0.5"/><stop stop-opacity="1" stop-color="rgb(13.168335%, 13.835144%, 57.261658%)" offset="0.503906"/><stop stop-opacity="1" stop-color="rgb(13.037109%, 14.372253%, 57.624817%)" offset="0.507812"/><stop stop-opacity="1" stop-color="rgb(12.895203%, 14.950562%, 58.013916%)" offset="0.511719"/><stop stop-opacity="1" stop-color="rgb(12.754822%, 15.52887%, 58.404541%)" offset="0.515625"/><stop stop-opacity="1" stop-color="rgb(12.612915%, 16.105652%, 58.79364%)" offset="0.519531"/><stop stop-opacity="1" stop-color="rgb(12.472534%, 16.68396%, 59.184265%)" offset="0.523438"/><stop stop-opacity="1" stop-color="rgb(12.332153%, 17.260742%, 59.57489%)" offset="0.527344"/><stop stop-opacity="1" stop-color="rgb(12.191772%, 17.83905%, 59.965515%)" offset="0.53125"/><stop stop-opacity="1" stop-color="rgb(12.049866%, 18.417358%, 60.354614%)" offset="0.535156"/><stop stop-opacity="1" stop-color="rgb(11.909485%, 18.995667%, 60.745239%)" offset="0.539062"/><stop stop-opacity="1" stop-color="rgb(11.767578%, 19.572449%, 61.134338%)" offset="0.542969"/><stop stop-opacity="1" stop-color="rgb(11.627197%, 20.150757%, 61.524963%)" offset="0.546875"/><stop stop-opacity="1" stop-color="rgb(11.485291%, 20.727539%, 61.915588%)" offset="0.550781"/><stop stop-opacity="1" stop-color="rgb(11.34491%, 21.305847%, 62.306213%)" offset="0.554687"/><stop stop-opacity="1" stop-color="rgb(11.203003%, 21.884155%, 62.695312%)" offset="0.558594"/><stop stop-opacity="1" stop-color="rgb(11.062622%, 22.462463%, 63.085938%)" offset="0.5625"/><stop stop-opacity="1" stop-color="rgb(10.922241%, 23.039246%, 63.476562%)" offset="0.566406"/><stop stop-opacity="1" stop-color="rgb(10.78186%, 23.617554%, 63.867188%)" offset="0.570312"/><stop stop-opacity="1" stop-color="rgb(10.639954%, 24.194336%, 64.256287%)" offset="0.574219"/><stop stop-opacity="1" stop-color="rgb(10.499573%, 24.772644%, 64.646912%)" offset="0.578125"/><stop stop-opacity="1" stop-color="rgb(10.357666%, 25.350952%, 65.036011%)" offset="0.582031"/><stop stop-opacity="1" stop-color="rgb(10.217285%, 25.92926%, 65.426636%)" offset="0.585937"/><stop stop-opacity="1" stop-color="rgb(10.075378%, 26.506042%, 65.817261%)" offset="0.589844"/><stop stop-opacity="1" stop-color="rgb(9.934998%, 27.084351%, 66.207886%)" offset="0.59375"/><stop stop-opacity="1" stop-color="rgb(9.793091%, 27.661133%, 66.596985%)" offset="0.597656"/><stop stop-opacity="1" stop-color="rgb(9.65271%, 28.239441%, 66.98761%)" offset="0.601562"/><stop stop-opacity="1" stop-color="rgb(9.510803%, 28.817749%, 67.376709%)" offset="0.605469"/><stop stop-opacity="1" stop-color="rgb(9.370422%, 29.396057%, 67.767334%)" offset="0.609375"/><stop stop-opacity="1" stop-color="rgb(9.230042%, 29.972839%, 68.157959%)" offset="0.613281"/><stop stop-opacity="1" stop-color="rgb(9.089661%, 30.551147%, 68.548584%)" offset="0.617187"/><stop stop-opacity="1" stop-color="rgb(8.947754%, 31.12793%, 68.937683%)" offset="0.621094"/><stop stop-opacity="1" stop-color="rgb(8.807373%, 31.706238%, 69.328308%)" offset="0.625"/><stop stop-opacity="1" stop-color="rgb(8.665466%, 32.284546%, 69.717407%)" offset="0.628906"/><stop stop-opacity="1" stop-color="rgb(8.525085%, 32.862854%, 70.108032%)" offset="0.632812"/><stop stop-opacity="1" stop-color="rgb(8.383179%, 33.439636%, 70.498657%)" offset="0.636719"/><stop stop-opacity="1" stop-color="rgb(8.242798%, 34.017944%, 70.889282%)" offset="0.640625"/><stop stop-opacity="1" stop-color="rgb(8.100891%, 34.594727%, 71.278381%)" offset="0.644531"/><stop stop-opacity="1" stop-color="rgb(7.96051%, 35.173035%, 71.669006%)" offset="0.648437"/><stop stop-opacity="1" stop-color="rgb(7.820129%, 35.751343%, 72.059631%)" offset="0.652344"/><stop stop-opacity="1" stop-color="rgb(7.679749%, 36.329651%, 72.450256%)" offset="0.65625"/><stop stop-opacity="1" stop-color="rgb(7.537842%, 36.906433%, 72.839355%)" offset="0.660156"/><stop stop-opacity="1" stop-color="rgb(7.397461%, 37.484741%, 73.22998%)" offset="0.664062"/><stop stop-opacity="1" stop-color="rgb(7.255554%, 38.061523%, 73.61908%)" offset="0.667969"/><stop stop-opacity="1" stop-color="rgb(7.115173%, 38.639832%, 74.009705%)" offset="0.671875"/><stop stop-opacity="1" stop-color="rgb(6.973267%, 39.21814%, 74.40033%)" offset="0.675781"/><stop stop-opacity="1" stop-color="rgb(6.832886%, 39.796448%, 74.790955%)" offset="0.679687"/><stop stop-opacity="1" stop-color="rgb(6.690979%, 40.37323%, 75.180054%)" offset="0.683594"/><stop stop-opacity="1" stop-color="rgb(6.550598%, 40.951538%, 75.570679%)" offset="0.6875"/><stop stop-opacity="1" stop-color="rgb(6.410217%, 41.52832%, 75.959778%)" offset="0.691406"/><stop stop-opacity="1" stop-color="rgb(6.269836%, 42.106628%, 76.350403%)" offset="0.695312"/><stop stop-opacity="1" stop-color="rgb(6.12793%, 42.683411%, 76.741028%)" offset="0.699219"/><stop stop-opacity="1" stop-color="rgb(5.987549%, 43.261719%, 77.131653%)" offset="0.703125"/><stop stop-opacity="1" stop-color="rgb(5.845642%, 43.840027%, 77.520752%)" offset="0.707031"/><stop stop-opacity="1" stop-color="rgb(5.705261%, 44.418335%, 77.911377%)" offset="0.710937"/><stop stop-opacity="1" stop-color="rgb(5.563354%, 44.995117%, 78.300476%)" offset="0.714844"/><stop stop-opacity="1" stop-color="rgb(5.422974%, 45.573425%, 78.691101%)" offset="0.71875"/><stop stop-opacity="1" stop-color="rgb(5.281067%, 46.150208%, 79.081726%)" offset="0.722656"/><stop stop-opacity="1" stop-color="rgb(5.140686%, 46.728516%, 79.472351%)" offset="0.726562"/><stop stop-opacity="1" stop-color="rgb(4.998779%, 47.306824%, 79.86145%)" offset="0.730469"/><stop stop-opacity="1" stop-color="rgb(4.858398%, 47.885132%, 80.252075%)" offset="0.734375"/><stop stop-opacity="1" stop-color="rgb(4.718018%, 48.461914%, 80.6427%)" offset="0.738281"/><stop stop-opacity="1" stop-color="rgb(4.577637%, 49.040222%, 81.033325%)" offset="0.742188"/><stop stop-opacity="1" stop-color="rgb(4.43573%, 49.617004%, 81.422424%)" offset="0.746094"/><stop stop-opacity="1" stop-color="rgb(4.295349%, 50.195312%, 81.813049%)" offset="0.75"/><stop stop-opacity="1" stop-color="rgb(4.153442%, 50.773621%, 82.202148%)" offset="0.753906"/><stop stop-opacity="1" stop-color="rgb(4.013062%, 51.351929%, 82.592773%)" offset="0.757812"/><stop stop-opacity="1" stop-color="rgb(3.871155%, 51.928711%, 82.983398%)" offset="0.761719"/><stop stop-opacity="1" stop-color="rgb(3.730774%, 52.507019%, 83.374023%)" offset="0.765625"/><stop stop-opacity="1" stop-color="rgb(3.588867%, 53.083801%, 83.763123%)" offset="0.769531"/><stop stop-opacity="1" stop-color="rgb(3.448486%, 53.662109%, 84.153748%)" offset="0.773438"/><stop stop-opacity="1" stop-color="rgb(3.308105%, 54.240417%, 84.542847%)" offset="0.777344"/><stop stop-opacity="1" stop-color="rgb(3.167725%, 54.818726%, 84.933472%)" offset="0.78125"/><stop stop-opacity="1" stop-color="rgb(3.025818%, 55.395508%, 85.324097%)" offset="0.785156"/><stop stop-opacity="1" stop-color="rgb(2.885437%, 55.973816%, 85.714722%)" offset="0.789063"/><stop stop-opacity="1" stop-color="rgb(2.74353%, 56.550598%, 86.103821%)" offset="0.792969"/><stop stop-opacity="1" stop-color="rgb(2.603149%, 57.128906%, 86.494446%)" offset="0.796875"/><stop stop-opacity="1" stop-color="rgb(2.461243%, 57.707214%, 86.885071%)" offset="0.800781"/><stop stop-opacity="1" stop-color="rgb(2.320862%, 58.285522%, 87.275696%)" offset="0.804688"/><stop stop-opacity="1" stop-color="rgb(2.178955%, 58.862305%, 87.664795%)" offset="0.808594"/><stop stop-opacity="1" stop-color="rgb(2.038574%, 59.440613%, 88.05542%)" offset="0.8125"/><stop stop-opacity="1" stop-color="rgb(1.898193%, 60.017395%, 88.444519%)" offset="0.816406"/><stop stop-opacity="1" stop-color="rgb(1.757812%, 60.595703%, 88.835144%)" offset="0.820313"/><stop stop-opacity="1" stop-color="rgb(1.615906%, 61.174011%, 89.225769%)" offset="0.824219"/><stop stop-opacity="1" stop-color="rgb(1.475525%, 61.752319%, 89.616394%)" offset="0.828125"/><stop stop-opacity="1" stop-color="rgb(1.333618%, 62.329102%, 90.005493%)" offset="0.832031"/><stop stop-opacity="1" stop-color="rgb(1.193237%, 62.90741%, 90.396118%)" offset="0.835938"/><stop stop-opacity="1" stop-color="rgb(1.051331%, 63.484192%, 90.785217%)" offset="0.839844"/><stop stop-opacity="1" stop-color="rgb(0.91095%, 64.0625%, 91.175842%)" offset="0.84375"/><stop stop-opacity="1" stop-color="rgb(0.769043%, 64.640808%, 91.566467%)" offset="0.847656"/><stop stop-opacity="1" stop-color="rgb(0.628662%, 65.219116%, 91.957092%)" offset="0.851563"/><stop stop-opacity="1" stop-color="rgb(0.486755%, 65.795898%, 92.346191%)" offset="0.855469"/><stop stop-opacity="1" stop-color="rgb(0.346375%, 66.374207%, 92.736816%)" offset="0.859375"/><stop stop-opacity="1" stop-color="rgb(0.205994%, 66.950989%, 93.125916%)" offset="0.863281"/><stop stop-opacity="1" stop-color="rgb(0.0656128%, 67.529297%, 93.516541%)" offset="0.867188"/><stop stop-opacity="1" stop-color="rgb(0.0320435%, 67.663574%, 93.608093%)" offset="0.875"/><stop stop-opacity="1" stop-color="rgb(0%, 67.799377%, 93.699646%)" offset="1"/></linearGradient></defs><g clip-path="url(#d7e91c6cb6)"><path fill="#2e3192" d="M 262.417969 166.914062 C 262.417969 166.511719 261.980469 166.386719 261.714844 166.542969 C 261.660156 166.535156 261.601562 166.535156 261.535156 166.546875 C 257.757812 167.285156 255.828125 170.746094 254.851562 174.171875 C 253.78125 177.933594 253.636719 181.863281 253 185.703125 C 252.570312 188.3125 251.925781 190.894531 250.792969 193.285156 C 249.230469 188.425781 247.765625 183.292969 244.550781 179.25 C 242.765625 177.011719 240.484375 175.238281 238.28125 173.4375 C 235.9375 171.519531 233.765625 169.429688 231.613281 167.308594 C 230.421875 166.132812 229.226562 164.96875 227.992188 163.835938 C 227.394531 163.292969 226.804688 162.738281 226.285156 162.117188 C 225.925781 161.683594 225.707031 161.03125 225.105469 160.949219 C 224.898438 160.917969 224.707031 160.964844 224.59375 161.15625 C 220.804688 167.417969 226.566406 173.382812 230.972656 177.359375 C 233.347656 179.5 235.953125 181.449219 237.566406 184.269531 C 238.355469 185.644531 238.949219 187.125 239.363281 188.660156 C 237.742188 186.644531 236.023438 184.710938 233.839844 183.28125 C 232.4375 182.363281 230.875 181.660156 229.390625 180.886719 C 225.550781 178.882812 221.714844 176.867188 217.914062 174.792969 C 217.125 174.359375 216.339844 173.929688 215.5625 173.480469 C 215.292969 173.328125 215.027344 173.171875 214.761719 173.007812 C 214.675781 172.953125 214.585938 172.898438 214.5 172.839844 C 214.425781 172.792969 214.316406 172.707031 214.394531 172.769531 C 214.195312 172.609375 213.808594 172.566406 213.683594 172.859375 C 213.054688 174.328125 212.894531 175.910156 213.433594 177.4375 C 213.945312 178.886719 214.925781 180.128906 216.0625 181.144531 C 217.402344 182.347656 218.984375 183.28125 220.488281 184.257812 C 222.128906 185.324219 223.773438 186.386719 225.300781 187.605469 C 226.824219 188.824219 228.300781 190.214844 229.488281 191.769531 C 229.488281 191.777344 229.492188 191.777344 229.496094 191.78125 C 228.410156 192.714844 227.449219 193.792969 226.671875 194.871094 C 226.589844 194.984375 226.507812 195.101562 226.429688 195.214844 C 224.59375 193.171875 221.851562 191.976562 219.550781 190.570312 C 218.164062 189.71875 216.871094 188.710938 215.507812 187.824219 C 213.894531 186.773438 212.230469 185.804688 210.519531 184.914062 C 210.324219 184.8125 210.003906 184.84375 209.902344 185.078125 C 208.488281 188.375 210.910156 191.414062 213.324219 193.453125 C 215.46875 195.265625 217.949219 196.621094 220.125 198.390625 C 220.773438 198.917969 221.410156 199.472656 221.980469 200.085938 C 222.351562 200.492188 222.765625 200.957031 222.882812 201.511719 C 222.707031 201.820312 222.523438 202.128906 222.332031 202.429688 C 220.59375 205.199219 218.28125 207.632812 216.199219 210.144531 C 215.253906 211.285156 214.34375 212.449219 213.285156 213.488281 C 212.300781 214.457031 211.238281 215.347656 210.136719 216.183594 C 207.890625 217.890625 205.507812 219.402344 203.234375 221.070312 C 201 222.710938 198.878906 224.511719 197.144531 226.6875 C 195.425781 228.84375 194.09375 231.253906 193.074219 233.808594 C 192.039062 236.398438 191.324219 239.101562 190.738281 241.824219 C 190.296875 243.851562 189.867188 245.898438 189.585938 247.957031 C 189.09375 251.621094 188.835938 255.320312 188.574219 259.007812 C 188.296875 262.859375 188.058594 266.714844 187.894531 270.574219 C 187.867188 271.214844 187.84375 271.859375 187.828125 272.5 C 187.816406 272.925781 187.660156 273.71875 188.078125 273.992188 C 188.402344 274.199219 188.910156 274.277344 189.277344 274.378906 C 189.746094 274.507812 190.222656 274.621094 190.699219 274.71875 C 191.730469 274.929688 192.769531 275.078125 193.816406 275.191406 C 198.175781 275.664062 202.613281 275.515625 206.972656 275.117188 C 208.800781 274.949219 210.625 274.730469 212.433594 274.429688 C 213.542969 274.246094 214.699219 274.070312 215.761719 273.6875 C 216.054688 273.582031 216.289062 273.46875 216.519531 273.261719 C 216.683594 273.117188 216.667969 272.894531 216.589844 272.714844 C 216.175781 271.730469 216.011719 270.570312 215.804688 269.523438 C 215.695312 268.964844 215.617188 268.398438 215.542969 267.835938 C 215.328125 266.113281 215.1875 264.382812 215.066406 262.652344 C 214.792969 258.824219 214.597656 254.976562 214.613281 251.136719 C 214.617188 250.117188 214.570312 248.894531 214.773438 247.972656 C 214.785156 247.910156 214.800781 247.847656 214.820312 247.789062 C 214.820312 247.785156 214.824219 247.78125 214.824219 247.777344 C 214.828125 247.773438 214.832031 247.765625 214.839844 247.753906 C 214.882812 247.679688 214.972656 247.558594 214.980469 247.546875 C 215.179688 247.292969 215.402344 247.054688 215.625 246.816406 C 217.410156 244.9375 219.378906 243.222656 221.304688 241.492188 C 227.050781 236.335938 232.90625 231.300781 238.597656 226.085938 C 240.796875 224.074219 243.007812 222.054688 245.035156 219.867188 C 246.179688 218.632812 247.15625 217.265625 248.179688 215.929688 C 250.167969 213.328125 252.152344 210.722656 254.039062 208.039062 C 255.894531 205.398438 257.742188 202.679688 259.222656 199.804688 C 260.550781 197.226562 261.21875 194.382812 261.601562 191.527344 C 262 188.566406 262.128906 185.570312 262.25 182.585938 C 262.394531 179.085938 262.421875 175.578125 262.421875 172.070312 C 262.421875 170.351562 262.417969 168.632812 262.417969 166.914062 Z M 236.582031 181.320312 C 235.621094 180.214844 234.480469 179.261719 233.386719 178.296875 C 230.933594 176.132812 228.394531 173.953125 226.472656 171.28125 C 225.472656 169.886719 224.625 168.332031 224.328125 166.625 C 224.050781 165.035156 224.378906 163.472656 225.117188 162.070312 C 225.785156 163.019531 226.628906 163.824219 227.488281 164.605469 C 228.519531 165.546875 229.519531 166.515625 230.515625 167.496094 C 232.636719 169.589844 234.753906 171.691406 237.054688 173.59375 C 239.152344 175.335938 241.347656 176.992188 243.175781 179.027344 C 244.980469 181.035156 246.25 183.449219 247.269531 185.933594 C 248.414062 188.703125 249.273438 191.578125 250.207031 194.425781 C 249.59375 195.539062 248.882812 196.589844 248.058594 197.570312 C 247.105469 198.703125 246.0625 199.761719 245.074219 200.867188 C 243.238281 202.921875 241.742188 205.402344 239.523438 207.082031 C 238.898438 207.558594 238.152344 207.90625 237.402344 208.21875 C 237.6875 206.203125 238.65625 204.3125 239.425781 202.453125 C 240.183594 200.621094 240.699219 198.769531 240.902344 196.792969 C 241.285156 193.128906 240.777344 189.292969 239.359375 185.886719 C 238.667969 184.234375 237.757812 182.675781 236.582031 181.320312 Z M 222.816406 184.707031 C 221.28125 183.675781 219.710938 182.703125 218.1875 181.65625 C 216.90625 180.777344 215.695312 179.722656 214.878906 178.382812 C 214.011719 176.960938 213.777344 175.351562 214.285156 173.796875 C 215.035156 174.304688 215.882812 174.707031 216.65625 175.132812 C 218.496094 176.148438 220.347656 177.136719 222.199219 178.121094 C 225.4375 179.839844 228.691406 181.539062 231.945312 183.226562 C 235.253906 184.941406 237.542969 187.785156 239.800781 190.664062 C 240.0625 192.1875 240.15625 193.742188 240.105469 195.273438 C 240.027344 197.484375 239.597656 199.605469 238.78125 201.660156 C 237.878906 203.925781 236.6875 206.144531 236.453125 208.609375 C 236.339844 208.65625 236.226562 208.699219 236.117188 208.746094 C 234.816406 209.296875 233.507812 209.824219 232.195312 210.351562 C 232.503906 208.789062 232.984375 207.242188 233.410156 205.710938 C 233.84375 204.140625 234.363281 202.519531 234.253906 200.867188 C 234.253906 200.839844 234.246094 200.8125 234.242188 200.785156 C 234.847656 199.25 235.480469 197.730469 236.304688 196.289062 C 236.902344 195.25 237.535156 194.238281 238.128906 193.199219 C 238.410156 192.695312 238.6875 192.1875 238.941406 191.667969 C 239.144531 191.246094 239.402344 190.824219 239.402344 190.351562 C 239.402344 190.191406 239.316406 190.039062 239.175781 189.960938 C 236.046875 188.171875 232.820312 189.214844 230.191406 191.21875 C 228.171875 188.601562 225.542969 186.535156 222.816406 184.707031 Z M 228.59375 212.773438 C 228.65625 212.714844 228.703125 212.640625 228.726562 212.546875 C 228.726562 212.542969 228.730469 212.539062 228.730469 212.535156 C 228.699219 212.707031 228.613281 212.777344 228.582031 212.796875 C 228.585938 212.789062 228.589844 212.78125 228.59375 212.773438 Z M 230.667969 210.964844 C 230.222656 211.144531 229.777344 211.320312 229.332031 211.507812 C 229.851562 210.625 230.359375 209.75 230.8125 208.875 C 231.597656 207.359375 232.257812 205.777344 232.894531 204.191406 C 232.761719 204.679688 232.621094 205.167969 232.488281 205.648438 C 232.027344 207.328125 231.488281 209.027344 231.210938 210.746094 C 231.03125 210.820312 230.847656 210.890625 230.667969 210.964844 Z M 221.8125 198.648438 C 220.707031 197.636719 219.496094 196.738281 218.273438 195.878906 C 215.96875 194.257812 213.484375 192.824219 211.746094 190.546875 C 210.730469 189.21875 210.042969 187.578125 210.535156 185.941406 C 212.019531 186.730469 213.46875 187.578125 214.878906 188.492188 C 216.261719 189.386719 217.566406 190.402344 218.96875 191.269531 C 221.292969 192.707031 224.097656 193.886719 225.917969 196 C 225.011719 197.445312 224.261719 198.984375 223.449219 200.492188 C 223.046875 199.777344 222.367188 199.160156 221.8125 198.648438 Z M 261.101562 187.289062 C 260.910156 190.28125 260.585938 193.289062 259.710938 196.167969 C 258.796875 199.179688 257.082031 201.851562 255.375 204.46875 C 253.578125 207.21875 251.640625 209.875 249.664062 212.496094 C 248.160156 214.488281 246.671875 216.605469 245.085938 218.460938 C 243.292969 220.546875 241.234375 222.421875 239.21875 224.289062 C 233.515625 229.574219 227.621094 234.644531 221.820312 239.820312 C 219.699219 241.714844 217.558594 243.597656 215.546875 245.605469 C 215.050781 246.101562 214.480469 246.617188 214.109375 247.214844 C 213.714844 247.84375 213.765625 248.753906 213.738281 249.464844 C 213.597656 253.042969 213.792969 256.648438 214 260.21875 C 214.113281 262.128906 214.246094 264.039062 214.429688 265.945312 C 214.558594 267.277344 214.6875 268.628906 214.964844 269.9375 C 215.164062 270.875 215.328125 271.855469 215.648438 272.765625 C 215.570312 272.792969 215.421875 272.851562 215.292969 272.890625 C 214.78125 273.050781 214.253906 273.167969 213.726562 273.277344 C 212.058594 273.621094 210.363281 273.851562 208.667969 274.039062 C 204.210938 274.539062 199.679688 274.75 195.203125 274.414062 C 193.019531 274.25 190.8125 273.949219 188.722656 273.265625 C 188.722656 273.21875 188.71875 273.175781 188.71875 273.136719 C 188.722656 272.957031 188.722656 272.78125 188.730469 272.601562 C 188.738281 272.171875 188.753906 271.738281 188.769531 271.308594 C 188.8125 270.167969 188.867188 269.027344 188.925781 267.882812 C 189.074219 265.015625 189.253906 262.148438 189.457031 259.285156 C 189.65625 256.453125 189.875 253.617188 190.164062 250.792969 C 190.417969 248.304688 190.828125 245.871094 191.324219 243.417969 C 192.113281 239.519531 193.089844 235.609375 194.847656 232.019531 C 196.636719 228.359375 199.230469 225.328125 202.421875 222.8125 C 205.503906 220.382812 208.910156 218.394531 211.941406 215.902344 C 213.507812 214.613281 214.867188 213.179688 216.148438 211.617188 C 217.632812 209.8125 219.152344 208.035156 220.625 206.222656 C 222.039062 204.484375 223.285156 202.707031 224.355469 200.730469 C 225.316406 198.953125 226.183594 197.101562 227.359375 195.453125 C 229.324219 192.695312 232.539062 189.707031 236.179688 189.933594 C 236.984375 189.984375 237.746094 190.230469 238.457031 190.59375 C 238.375 190.867188 238.191406 191.144531 238.074219 191.382812 C 237.816406 191.898438 237.539062 192.40625 237.25 192.90625 C 236.722656 193.832031 236.15625 194.738281 235.621094 195.660156 C 234.476562 197.636719 233.695312 199.734375 232.859375 201.851562 C 232.007812 204.003906 231.175781 206.183594 230.121094 208.246094 C 229.148438 210.148438 228.003906 211.964844 227.011719 213.859375 C 225.957031 215.875 225.058594 218.003906 224.882812 220.300781 C 224.835938 220.878906 225.742188 220.878906 225.785156 220.300781 C 225.992188 217.605469 227.222656 215.164062 228.578125 212.804688 C 228.585938 212.804688 228.597656 212.800781 228.625 212.796875 C 228.675781 212.789062 228.734375 212.742188 228.78125 212.722656 C 228.960938 212.632812 229.148438 212.558594 229.332031 212.480469 C 229.917969 212.230469 230.511719 211.996094 231.101562 211.757812 C 232.730469 211.101562 234.363281 210.453125 235.984375 209.777344 C 237.207031 209.265625 238.5 208.792969 239.636719 208.101562 C 241.695312 206.847656 243.140625 204.605469 244.632812 202.773438 C 246.417969 200.585938 248.5625 198.691406 250.121094 196.328125 C 250.460938 195.8125 250.777344 195.28125 251.070312 194.738281 C 251.105469 194.699219 251.128906 194.652344 251.144531 194.597656 C 252.121094 192.753906 252.832031 190.773438 253.316406 188.742188 C 254.273438 184.742188 254.386719 180.617188 255.199219 176.59375 C 255.945312 172.898438 257.421875 168.453125 261.511719 167.480469 C 261.515625 174.085938 261.53125 180.691406 261.101562 187.289062 Z M 261.101562 187.289062 " fill-opacity="1" fill-rule="nonzero"/></g><path fill="#2e3192" d="M 160.652344 172.757812 C 160.65625 172.753906 160.65625 172.753906 160.652344 172.757812 Z M 160.652344 172.757812 " fill-opacity="1" fill-rule="nonzero"/><g clip-path="url(#3bbad24d8b)"><path fill="#2e3192" d="M 186.664062 262.058594 C 186.40625 258.085938 186.125 254.109375 185.699219 250.152344 C 185.25 245.910156 184.414062 241.664062 183.230469 237.570312 C 181.675781 232.1875 179.066406 227.25 174.835938 223.5 C 170.671875 219.8125 165.566406 217.3125 161.617188 213.367188 C 160.558594 212.308594 159.644531 211.128906 158.6875 209.980469 C 157.632812 208.710938 156.566406 207.449219 155.519531 206.171875 C 154.480469 204.914062 153.449219 203.652344 152.585938 202.261719 C 152.4375 202.015625 152.289062 201.769531 152.144531 201.519531 C 152.371094 200.417969 153.617188 199.480469 154.417969 198.796875 C 155.578125 197.808594 156.816406 196.921875 158.070312 196.066406 C 160.5 194.417969 163.074219 192.761719 164.625 190.183594 C 165.582031 188.59375 165.867188 186.808594 165.125 185.078125 C 165.027344 184.847656 164.703125 184.816406 164.507812 184.914062 C 162.800781 185.804688 161.132812 186.773438 159.519531 187.824219 C 158.15625 188.714844 156.867188 189.71875 155.476562 190.570312 C 153.167969 191.984375 150.414062 193.183594 148.578125 195.242188 C 147.769531 194.054688 146.855469 192.949219 145.757812 191.964844 C 145.6875 191.902344 145.613281 191.835938 145.539062 191.773438 C 145.542969 191.773438 145.542969 191.773438 145.542969 191.769531 C 147.769531 188.847656 150.816406 186.6875 153.859375 184.703125 C 156.625 182.898438 159.96875 181.160156 161.378906 177.988281 C 162.125 176.304688 162.066406 174.539062 161.347656 172.859375 C 161.222656 172.566406 160.832031 172.609375 160.636719 172.769531 C 160.644531 172.761719 160.648438 172.761719 160.652344 172.757812 C 160.640625 172.765625 160.617188 172.785156 160.574219 172.8125 C 160.5 172.863281 160.421875 172.910156 160.347656 172.960938 C 160.136719 173.09375 159.921875 173.21875 159.707031 173.34375 C 159.058594 173.722656 158.402344 174.085938 157.746094 174.445312 C 155.890625 175.46875 154.019531 176.464844 152.148438 177.460938 C 148.875 179.199219 145.550781 180.855469 142.296875 182.621094 C 139.59375 184.089844 137.558594 186.320312 135.660156 188.675781 C 135.957031 187.578125 136.34375 186.507812 136.824219 185.488281 C 137.59375 183.851562 138.613281 182.34375 139.914062 181.082031 C 140.957031 180.066406 142.066406 179.125 143.152344 178.160156 C 145.628906 175.96875 148.144531 173.679688 149.921875 170.859375 C 150.820312 169.4375 151.496094 167.859375 151.664062 166.175781 C 151.84375 164.398438 151.347656 162.664062 150.429688 161.152344 C 150.316406 160.960938 150.125 160.914062 149.921875 160.945312 C 149.410156 161.015625 149.292969 161.394531 149.007812 161.777344 C 148.550781 162.390625 148.003906 162.929688 147.449219 163.453125 C 146.40625 164.433594 145.347656 165.394531 144.328125 166.402344 C 142.097656 168.597656 139.886719 170.824219 137.480469 172.832031 C 135.289062 174.65625 132.976562 176.375 131.082031 178.523438 C 129.316406 180.527344 128.058594 182.886719 127.027344 185.339844 C 125.941406 187.925781 125.105469 190.605469 124.242188 193.273438 C 123.421875 191.523438 122.832031 189.671875 122.417969 187.769531 C 121.550781 183.742188 121.449219 179.597656 120.535156 175.578125 C 119.65625 171.710938 117.8125 167.390625 113.492188 166.546875 C 113.429688 166.535156 113.371094 166.535156 113.3125 166.542969 C 113.046875 166.386719 112.613281 166.511719 112.613281 166.914062 C 112.609375 173.710938 112.582031 180.503906 113.019531 187.289062 C 113.210938 190.234375 113.519531 193.203125 114.335938 196.050781 C 115.1875 199.019531 116.765625 201.636719 118.417969 204.222656 C 120.152344 206.929688 122.027344 209.542969 123.953125 212.113281 C 125.625 214.355469 127.28125 216.632812 129.050781 218.796875 C 130.707031 220.828125 132.691406 222.617188 134.601562 224.402344 C 140.25 229.675781 146.109375 234.714844 151.878906 239.851562 C 154.085938 241.8125 156.304688 243.769531 158.421875 245.832031 C 158.984375 246.382812 159.574219 246.933594 160.058594 247.558594 C 160.0625 247.570312 160.160156 247.710938 160.1875 247.753906 C 160.195312 247.765625 160.199219 247.773438 160.203125 247.78125 C 160.203125 247.785156 160.207031 247.785156 160.207031 247.789062 C 160.230469 247.863281 160.246094 247.9375 160.261719 248.011719 C 160.332031 248.359375 160.351562 248.816406 160.371094 249.238281 C 160.539062 252.738281 160.339844 256.273438 160.144531 259.765625 C 160.039062 261.679688 159.90625 263.597656 159.730469 265.507812 C 159.605469 266.871094 159.484375 268.246094 159.210938 269.585938 C 159.003906 270.617188 158.847656 271.746094 158.4375 272.71875 C 158.363281 272.894531 158.34375 273.121094 158.507812 273.265625 C 159.082031 273.773438 159.949219 273.910156 160.671875 274.070312 C 162.179688 274.402344 163.71875 274.625 165.25 274.816406 C 169.503906 275.351562 173.824219 275.597656 178.113281 275.421875 C 180.195312 275.332031 182.285156 275.140625 184.328125 274.71875 C 184.789062 274.625 185.242188 274.519531 185.691406 274.394531 C 186.070312 274.292969 186.691406 274.210938 186.996094 273.957031 C 187.363281 273.652344 187.210938 272.859375 187.199219 272.433594 C 187.105469 268.972656 186.886719 265.511719 186.664062 262.058594 Z M 156.0625 191.269531 C 157.464844 190.402344 158.765625 189.386719 160.152344 188.492188 C 161.5625 187.578125 163.015625 186.730469 164.496094 185.941406 C 165.453125 189.007812 162.386719 191.855469 160.175781 193.527344 C 158.035156 195.144531 155.714844 196.488281 153.675781 198.246094 C 152.976562 198.851562 152.058594 199.609375 151.570312 200.496094 C 151.164062 199.753906 150.773438 199 150.375 198.253906 C 149.96875 197.492188 149.546875 196.746094 149.089844 196.027344 C 150.910156 193.898438 153.726562 192.710938 156.0625 191.269531 Z M 141.949219 183.867188 C 143.332031 183.007812 144.835938 182.320312 146.277344 181.570312 C 150.117188 179.566406 153.957031 177.554688 157.753906 175.472656 C 158.726562 174.941406 159.8125 174.445312 160.746094 173.804688 C 161.722656 176.804688 159.753906 179.539062 157.355469 181.296875 C 154.441406 183.429688 151.242188 185.136719 148.472656 187.476562 C 147.152344 188.589844 145.902344 189.835938 144.847656 191.207031 C 143.242188 189.976562 141.351562 189.046875 139.308594 189.019531 C 138.082031 189.003906 136.90625 189.359375 135.847656 189.960938 C 135.710938 190.042969 135.625 190.195312 135.625 190.351562 C 135.625 190.714844 135.769531 190.992188 135.921875 191.320312 C 136.164062 191.84375 136.429688 192.359375 136.710938 192.863281 C 137.210938 193.765625 137.753906 194.644531 138.277344 195.535156 C 138.84375 196.488281 139.390625 197.453125 139.851562 198.460938 C 140.195312 199.21875 140.492188 200.003906 140.785156 200.78125 C 140.78125 200.808594 140.773438 200.835938 140.773438 200.867188 C 140.667969 202.519531 141.183594 204.140625 141.621094 205.710938 C 142.042969 207.238281 142.527344 208.785156 142.832031 210.351562 C 141.925781 209.984375 141.019531 209.621094 140.113281 209.25 C 139.605469 209.039062 139.089844 208.832031 138.574219 208.617188 C 138.375 206.464844 137.429688 204.492188 136.601562 202.523438 C 135.800781 200.617188 135.210938 198.699219 135.011719 196.632812 C 134.820312 194.664062 134.886719 192.640625 135.222656 190.667969 C 137.195312 188.152344 139.199219 185.578125 141.949219 183.867188 Z M 143.816406 210.746094 C 143.539062 209.027344 143 207.328125 142.539062 205.648438 C 142.417969 205.195312 142.28125 204.738281 142.15625 204.277344 C 142.675781 205.574219 143.21875 206.859375 143.824219 208.109375 C 144.386719 209.261719 145.019531 210.378906 145.65625 211.492188 C 145.410156 211.390625 145.160156 211.289062 144.914062 211.1875 C 144.546875 211.039062 144.183594 210.894531 143.816406 210.746094 Z M 131.117188 179.890625 C 132.820312 177.75 134.984375 176.035156 137.09375 174.316406 C 139.371094 172.457031 141.503906 170.460938 143.59375 168.398438 C 144.761719 167.25 145.910156 166.078125 147.125 164.976562 C 148.121094 164.074219 149.132812 163.167969 149.90625 162.066406 C 153.085938 168.105469 146.71875 173.792969 142.566406 177.476562 C 141.488281 178.429688 140.390625 179.367188 139.351562 180.363281 C 138.085938 181.585938 137.050781 183.023438 136.257812 184.59375 C 134.59375 187.890625 133.878906 191.675781 134.019531 195.351562 C 134.101562 197.503906 134.492188 199.613281 135.265625 201.621094 C 136.09375 203.769531 137.296875 205.898438 137.625 208.207031 C 137.097656 207.972656 136.578125 207.722656 136.074219 207.449219 C 135.230469 206.988281 134.53125 206.269531 133.882812 205.574219 C 132.953125 204.570312 132.121094 203.480469 131.261719 202.414062 C 129.429688 200.140625 127.171875 198.179688 125.585938 195.710938 C 125.3125 195.289062 125.058594 194.855469 124.820312 194.417969 C 126.441406 189.460938 127.816406 184.042969 131.117188 179.890625 Z M 159.375 272.765625 C 159.378906 272.769531 159.382812 272.769531 159.390625 272.777344 C 159.386719 272.773438 159.382812 272.769531 159.375 272.765625 Z M 173.722656 274.546875 C 169.742188 274.449219 165.722656 274.121094 161.804688 273.378906 C 161.160156 273.253906 160.515625 273.125 159.886719 272.9375 C 159.78125 272.90625 159.671875 272.875 159.570312 272.839844 C 159.535156 272.828125 159.398438 272.773438 159.375 272.765625 C 159.707031 271.839844 159.871094 270.835938 160.070312 269.882812 C 160.1875 269.320312 160.269531 268.753906 160.34375 268.1875 C 160.5625 266.515625 160.707031 264.832031 160.832031 263.148438 C 161.117188 259.289062 161.3125 255.410156 161.320312 251.535156 C 161.320312 250.34375 161.347656 249.117188 161.160156 247.933594 C 161.066406 247.335938 160.734375 246.9375 160.335938 246.496094 C 158.722656 244.703125 156.863281 243.105469 155.074219 241.492188 C 149.335938 236.320312 143.476562 231.285156 137.765625 226.085938 C 135.453125 223.980469 133.132812 221.867188 130.980469 219.597656 C 129.964844 218.527344 129.148438 217.457031 128.261719 216.296875 C 126.273438 213.699219 124.28125 211.105469 122.378906 208.441406 C 120.476562 205.78125 118.664062 203.050781 117.050781 200.203125 C 115.570312 197.578125 114.785156 194.695312 114.359375 191.726562 C 113.925781 188.703125 113.804688 185.632812 113.679688 182.585938 C 113.535156 179.085938 113.511719 175.578125 113.511719 172.070312 C 113.511719 170.539062 113.515625 169.007812 113.515625 167.476562 C 117.113281 168.335938 118.699219 171.925781 119.523438 175.238281 C 120.476562 179.0625 120.601562 183.027344 121.320312 186.894531 C 121.820312 189.566406 122.601562 192.183594 123.882812 194.59375 C 123.898438 194.652344 123.925781 194.699219 123.964844 194.742188 C 125.332031 197.257812 127.277344 199.25 129.183594 201.363281 C 130.988281 203.367188 132.464844 205.726562 134.546875 207.46875 C 135.550781 208.308594 136.746094 208.796875 137.941406 209.308594 C 139.722656 210.078125 141.523438 210.792969 143.320312 211.515625 C 144.0625 211.8125 144.804688 212.109375 145.542969 212.417969 C 145.753906 212.503906 145.960938 212.589844 146.167969 212.6875 C 146.234375 212.71875 146.308594 212.765625 146.378906 212.785156 C 146.386719 212.789062 146.390625 212.789062 146.398438 212.792969 C 146.570312 213.101562 146.742188 213.410156 146.914062 213.722656 C 148.023438 215.769531 149.058594 217.949219 149.238281 220.304688 C 149.285156 220.878906 150.1875 220.882812 150.144531 220.304688 C 149.824219 216.101562 147.195312 212.53125 145.261719 208.929688 C 144.179688 206.917969 143.335938 204.785156 142.488281 202.660156 C 141.652344 200.566406 140.925781 198.414062 139.835938 196.429688 C 139.242188 195.351562 138.589844 194.308594 137.96875 193.246094 C 137.679688 192.746094 137.394531 192.242188 137.128906 191.730469 C 136.960938 191.410156 136.667969 190.984375 136.566406 190.605469 C 139.957031 188.871094 143.539062 190.921875 145.964844 193.417969 C 148.800781 196.335938 150.101562 200.230469 152.347656 203.554688 C 153.636719 205.460938 155.195312 207.203125 156.667969 208.964844 C 158.082031 210.65625 159.417969 212.445312 160.976562 214.003906 C 163.734375 216.757812 167.074219 218.820312 170.238281 221.0625 C 173.550781 223.40625 176.589844 226.027344 178.773438 229.492188 C 180.898438 232.867188 182.160156 236.683594 183.074219 240.542969 C 183.746094 243.375 184.347656 246.253906 184.683594 249.148438 C 184.992188 251.761719 185.203125 254.386719 185.402344 257.011719 C 185.800781 262.210938 186.175781 267.425781 186.300781 272.636719 C 186.304688 272.796875 186.304688 272.953125 186.308594 273.109375 C 186.308594 273.15625 186.304688 273.210938 186.304688 273.265625 C 182.3125 274.585938 177.882812 274.644531 173.722656 274.546875 Z M 173.722656 274.546875 " fill-opacity="1" fill-rule="nonzero"/></g><g clip-path="url(#d267ddc358)"><g clip-path="url(#2a129b9ee2)"><path fill="url(#f12f8f3070)" d="M 141.171875 87.984375 L 141.171875 160.542969 L 234.140625 160.542969 L 234.140625 87.984375 Z M 141.171875 87.984375 " fill-rule="nonzero"/></g></g><g fill="#222291" fill-opacity="1"><g transform="translate(105.442295, 91.713195)"><g><path d="M 3.757812 -3.742188 C 5.214844 -5.296875 5.78125 -7.964844 3.929688 -9.699219 C 2.304688 -11.222656 0.164062 -10.152344 -1.65625 -9.269531 C -3.101562 -8.589844 -4.867188 -7.679688 -6.074219 -8.808594 C -7.140625 -9.808594 -6.980469 -11.253906 -5.964844 -12.339844 C -4.738281 -13.648438 -2.902344 -14.089844 -0.992188 -13.339844 L -0.90625 -13.539062 L -2.714844 -15.132812 C -3.726562 -14.757812 -4.777344 -14.070312 -5.714844 -13.066406 C -7.703125 -10.941406 -7.929688 -8.613281 -6.25 -7.042969 C -4.679688 -5.574219 -3.132812 -6.308594 -1.246094 -7.15625 C 0.199219 -7.835938 2.457031 -8.996094 3.78125 -7.753906 C 4.890625 -6.71875 4.675781 -5.292969 3.804688 -4.359375 C 2.117188 -2.5625 -0.199219 -2.472656 -2.273438 -3.347656 L -2.410156 -3.144531 L -0.332031 -1.300781 C 0.828125 -1.507812 2.453125 -2.347656 3.757812 -3.742188 Z M 3.757812 -3.742188 "/></g></g></g><g fill="#222291" fill-opacity="1"><g transform="translate(115.088874, 81.691048)"><g><path d="M -0.300781 0.246094 L 1.367188 -1.109375 L 1.203125 -1.308594 C 0.621094 -1.027344 0.195312 -1.375 -0.195312 -2.65625 L -1.03125 -5.390625 L 2.816406 -8.507812 L 5.359375 -7.132812 C 6.53125 -6.511719 7.035156 -6.300781 6.691406 -5.753906 L 6.851562 -5.554688 L 9.472656 -7.679688 L 9.308594 -7.878906 C 8.851562 -7.769531 8.171875 -7.839844 7 -8.464844 L -3.464844 -14.078125 L -4.363281 -12.300781 L -3.851562 -12.050781 C -3.511719 -11.898438 -3.308594 -11.679688 -3.191406 -11.296875 L -0.46875 -2.433594 C -0.078125 -1.15625 -0.164062 -0.464844 -0.464844 0.0429688 Z M -1.128906 -5.691406 L -2.9375 -11.597656 L 2.527344 -8.65625 Z M -1.128906 -5.691406 "/></g></g></g><g fill="#222291" fill-opacity="1"><g transform="translate(127.329923, 72.117118)"><g><path d="M 0.75 -0.445312 L 4.203125 -2.503906 C 8.121094 -4.835938 8.449219 -7.578125 7.308594 -9.421875 C 6.34375 -11.003906 4.285156 -11.417969 1.609375 -9.933594 C 3.410156 -11.480469 3.503906 -12.875 2.859375 -13.957031 C 2.089844 -15.246094 0.652344 -15.488281 -1.957031 -13.933594 L -5.890625 -11.589844 L -5.757812 -11.367188 C -5.128906 -11.503906 -4.734375 -11.09375 -4.050781 -9.949219 L 0.179688 -2.847656 C 0.863281 -1.699219 1.035156 -1.15625 0.617188 -0.667969 Z M 2.097656 -3.46875 L -0.75 -8.246094 L 0.378906 -8.921875 C 2.753906 -10.332031 4.625 -9.617188 5.765625 -7.707031 C 6.769531 -6.015625 6.488281 -4.210938 4.195312 -2.84375 L 3.75 -2.578125 C 3.0625 -2.171875 2.777344 -2.324219 2.097656 -3.46875 Z M -0.902344 -8.5 L -3.414062 -12.722656 L -2.761719 -13.109375 C -1.136719 -14.078125 0.347656 -13.863281 1.183594 -12.460938 C 1.847656 -11.347656 1.679688 -10.039062 0.515625 -9.347656 Z M -0.902344 -8.5 "/></g></g></g><g fill="#222291" fill-opacity="1"><g transform="translate(140.662709, 64.497382)"><g><path d="M 0.804688 -0.335938 L 9.449219 -3.964844 L 8.523438 -6.511719 L 8.285156 -6.453125 C 8.367188 -4.4375 7.402344 -3.429688 5.679688 -2.703125 L 4.039062 -2.015625 C 3.492188 -1.785156 3.054688 -1.964844 2.824219 -2.511719 L 0.660156 -7.671875 L 2.296875 -8.363281 C 4.382812 -9.238281 5.152344 -9.078125 5.800781 -8.304688 L 6.039062 -8.402344 L 4.835938 -11.273438 L 4.59375 -11.175781 C 4.695312 -10.171875 4.269531 -9.511719 2.183594 -8.636719 L 0.542969 -7.945312 L -1.609375 -13.074219 L 0.390625 -13.910156 C 2.304688 -14.714844 3.597656 -14.65625 4.984375 -13.265625 L 5.183594 -13.410156 L 3.984375 -15.742188 L -4.21875 -12.296875 L -4.117188 -12.058594 C -3.476562 -12.109375 -3.140625 -11.644531 -2.625 -10.414062 L 0.574219 -2.792969 C 1.09375 -1.5625 1.1875 -1 0.703125 -0.578125 Z M 0.804688 -0.335938 "/></g></g></g><g fill="#222291" fill-opacity="1"><g transform="translate(154.287968, 59.037828)"><g><path d="M 9.996094 -2.511719 C 10.300781 -2.589844 10.867188 -2.761719 11.25 -2.976562 L 11.183594 -3.230469 C 11.101562 -3.1875 11.011719 -3.164062 10.921875 -3.140625 C 10.257812 -2.964844 9.945312 -3.34375 8.367188 -5.472656 C 6.785156 -7.605469 6.167969 -8.34375 4.082031 -8.039062 C 6.390625 -8.957031 7.191406 -10.492188 6.753906 -12.140625 C 6.371094 -13.589844 5.191406 -14.792969 1.285156 -13.757812 L -2.476562 -12.765625 L -2.410156 -12.511719 C -1.765625 -12.472656 -1.5 -11.96875 -1.160156 -10.679688 L 0.957031 -2.6875 C 1.296875 -1.398438 1.316406 -0.828125 0.777344 -0.472656 L 0.84375 -0.222656 L 4.175781 -1.105469 L 4.109375 -1.355469 C 3.464844 -1.394531 3.195312 -1.902344 2.855469 -3.191406 L 1.753906 -7.347656 L 2.8125 -7.625 C 4.390625 -8.042969 4.710938 -7.191406 6.476562 -4.859375 C 7.894531 -2.988281 8.507812 -2.117188 9.996094 -2.511719 Z M 1.679688 -7.632812 L 0.230469 -13.117188 C 0.488281 -13.222656 0.75 -13.3125 1.003906 -13.378906 C 3.242188 -13.972656 4.585938 -12.660156 4.96875 -11.207031 C 5.335938 -9.828125 4.867188 -8.476562 2.828125 -7.9375 Z M 1.679688 -7.632812 "/></g></g></g><g fill="#222291" fill-opacity="1"><g transform="translate(169.143737, 55.527689)"><g/></g></g><g fill="#222291" fill-opacity="1"><g transform="translate(176.578727, 54.36612)"><g><path d="M 0.84375 -10.832031 L 5.664062 -0.25 L 6.367188 -0.277344 L 10.082031 -11.238281 C 10.507812 -12.5 10.96875 -13.003906 11.515625 -13.230469 L 11.503906 -13.488281 L 9.355469 -13.394531 L 9.367188 -13.136719 C 10.003906 -13.015625 10.15625 -12.484375 9.730469 -11.222656 L 6.757812 -2.429688 L 2.972656 -10.925781 C 2.433594 -12.144531 2.171875 -12.617188 2.777344 -12.847656 L 2.765625 -13.105469 L -0.640625 -12.957031 L -0.632812 -12.699219 C -0.195312 -12.511719 0.304688 -12.050781 0.84375 -10.832031 Z M 0.84375 -10.832031 "/></g></g></g><g fill="#222291" fill-opacity="1"><g transform="translate(192.349001, 54.08844)"><g><path d="M 0.867188 0.0625 L 4.308594 0.308594 L 4.324219 0.0507812 C 3.730469 -0.199219 3.640625 -0.761719 3.734375 -2.09375 L 4.324219 -10.335938 C 4.421875 -11.667969 4.589844 -12.214844 5.214844 -12.371094 L 5.234375 -12.632812 L 1.792969 -12.878906 L 1.777344 -12.617188 C 2.371094 -12.371094 2.460938 -11.808594 2.367188 -10.476562 L 1.777344 -2.234375 C 1.679688 -0.902344 1.511719 -0.355469 0.886719 -0.195312 Z M 0.867188 0.0625 "/></g></g></g><g fill="#222291" fill-opacity="1"><g transform="translate(201.30692, 54.766252)"><g><path d="M 10.105469 2.015625 C 10.414062 2.074219 11.003906 2.164062 11.441406 2.132812 L 11.488281 1.878906 C 11.394531 1.878906 11.304688 1.863281 11.210938 1.84375 C 10.539062 1.71875 10.417969 1.246094 9.90625 -1.359375 C 9.390625 -3.960938 9.148438 -4.894531 7.136719 -5.511719 C 9.613281 -5.351562 10.996094 -6.398438 11.308594 -8.074219 C 11.582031 -9.546875 11.03125 -11.140625 7.058594 -11.878906 L 3.234375 -12.59375 L 3.183594 -12.339844 C 3.75 -12.027344 3.773438 -11.457031 3.53125 -10.144531 L 2.015625 -2.019531 C 1.773438 -0.707031 1.542969 -0.183594 0.902344 -0.09375 L 0.855469 0.160156 L 4.246094 0.792969 L 4.292969 0.535156 C 3.730469 0.222656 3.703125 -0.347656 3.949219 -1.660156 L 4.734375 -5.886719 L 5.808594 -5.683594 C 7.414062 -5.386719 7.339844 -4.476562 7.933594 -1.613281 C 8.414062 0.683594 8.59375 1.734375 10.105469 2.015625 Z M 4.789062 -6.175781 L 5.828125 -11.75 C 6.109375 -11.738281 6.386719 -11.703125 6.640625 -11.65625 C 8.917969 -11.234375 9.570312 -9.472656 9.292969 -7.996094 C 9.03125 -6.59375 8.03125 -5.574219 5.957031 -5.960938 Z M 4.789062 -6.175781 "/></g></g></g><g fill="#222291" fill-opacity="1"><g transform="translate(216.112832, 57.815905)"><g><path d="M 3.308594 1.097656 L 6.597656 2.1875 L 6.679688 1.941406 C 6.160156 1.554688 6.214844 0.984375 6.632812 -0.28125 L 9.871094 -10.042969 L 10.378906 -9.875 C 11.945312 -9.355469 12.589844 -8.652344 12.777344 -7.03125 L 13 -6.996094 L 13.597656 -9.160156 L 4.433594 -12.199219 L 3.621094 -10.105469 L 3.820312 -10 C 4.9375 -11.191406 5.875 -11.367188 7.441406 -10.847656 L 7.988281 -10.667969 L 4.75 -0.90625 C 4.332031 0.363281 4.035156 0.847656 3.390625 0.851562 Z M 3.308594 1.097656 "/></g></g></g><g fill="#222291" fill-opacity="1"><g transform="translate(229.36508, 62.391449)"><g><path d="M 6.039062 3.210938 C 8.464844 4.417969 10.875 3.9375 12.53125 0.605469 L 15.015625 -4.390625 C 15.609375 -5.585938 15.976562 -6.027344 16.613281 -5.9375 L 16.730469 -6.167969 L 14.503906 -7.273438 L 14.390625 -7.042969 C 15.121094 -6.347656 15.230469 -5.566406 14.222656 -3.542969 L 12.21875 0.488281 C 10.617188 3.707031 8.296875 3.835938 6.902344 3.144531 C 4.644531 2.019531 3.714844 0.148438 5.214844 -2.871094 L 7.765625 -7.996094 C 8.359375 -9.191406 8.722656 -9.632812 9.363281 -9.542969 L 9.476562 -9.773438 L 6.390625 -11.308594 L 6.277344 -11.078125 C 6.734375 -10.621094 6.601562 -10.066406 6.007812 -8.871094 L 3.523438 -3.878906 C 1.75 -0.308594 3.652344 2.023438 6.039062 3.210938 Z M 6.039062 3.210938 "/></g></g></g><g fill="#222291" fill-opacity="1"><g transform="translate(243.852912, 69.930871)"><g><path d="M -0.320312 -0.222656 L 1.441406 1.007812 L 1.59375 0.796875 C 1.160156 0.3125 1.375 -0.191406 2.5 -0.921875 L 4.898438 -2.480469 L 8.953125 0.355469 L 8.335938 3.179688 C 8.0625 4.480469 7.996094 5.023438 7.378906 4.839844 L 7.230469 5.050781 L 9.996094 6.984375 L 10.144531 6.773438 C 9.910156 6.359375 9.792969 5.691406 10.066406 4.390625 L 12.574219 -7.222656 L 10.617188 -7.59375 L 10.519531 -7.03125 C 10.464844 -6.660156 10.308594 -6.40625 9.976562 -6.1875 L 2.210938 -1.125 C 1.089844 -0.394531 0.402344 -0.285156 -0.171875 -0.4375 Z M 5.160156 -2.660156 L 10.335938 -6.027344 L 9.015625 0.0390625 Z M 5.160156 -2.660156 "/></g></g></g><g fill="#222291" fill-opacity="1"><g transform="translate(256.437547, 79.104287)"><g><path d="M 0.640625 0.589844 L 7.113281 6.585938 L 8.808594 4.972656 L 8.65625 4.78125 C 7.03125 5.445312 6.019531 5.117188 4.648438 3.847656 L 3.53125 2.8125 C 3.097656 2.410156 3.078125 1.941406 3.480469 1.503906 L 9.839844 -5.363281 C 10.746094 -6.34375 11.21875 -6.664062 11.804688 -6.394531 L 11.980469 -6.585938 L 9.453125 -8.929688 L 9.277344 -8.738281 C 9.585938 -8.171875 9.304688 -7.675781 8.398438 -6.699219 L 2.78125 -0.632812 C 1.875 0.347656 1.402344 0.667969 0.816406 0.402344 Z M 0.640625 0.589844 "/></g></g></g><g fill="#222291" fill-opacity="1"><g transform="translate(266.481118, 88.88186)"><g/></g></g></svg>